:SAMPLES-PER-SECOND 30
:FULLY-SPECIFIED
:DEGREES
916
root  13.9316 38.9142 10.9084 -0.636597 1.52035 5.33002
RightUpLeg  -13.2824 -6.72997 3.37229
RightLeg  13.1934 -28.3313 -2.07029
RightFoot  -5.12554 0.750929 -14.3897
RightToes  2.21189e-009 0 -3.6325e-017
Spine  3.46336 -2.70428 5.50147
Spine1  4.36728 -2.61111 0.767294
HEad  -14.9038 -15.047 0.272232
LeftShoulder1  0.181663 3.0062 -30.4512
LeftArm  -9.24661 9.68878 -38.7616
LeftForeArm  14.3676 -13.111 -5.11985
LeftHand  -0.0523265 4.19726 3.17701
RightShoulder  -0.736369 -5.61048 28.2971
RightArm  17.0977 -7.55031 44.4575
RightForeArm  2.26223 12.5269 6.97612
RightHand  -0.469883 2.60541 -7.0861
LeftUpLeg  4.80026 30.9472 2.00848
LeftLeg  32.9048 3.02915 2.47901
LeftFoot  -3.61684 1.398 -20.8265
LeftToes  -3.01956e-010 3.07132e-011 1.04116e-011
917
root  14.0835 38.8163 11.5467 -1.59625 -1.54581 4.73242
RightUpLeg  -12.0956 -7.03748 4.18935
RightLeg  14.7982 -25.4754 -2.30541
RightFoot  -6.4744 0.580274 -14.5719
RightToes  2.21189e-009 0 -3.6325e-017
Spine  5.05279 -3.118 5.57205
Spine1  3.39396 -3.09227 2.37455
HEad  -14.614 -17.084 1.41669
LeftShoulder1  0.311735 2.63541 -29.7466
LeftArm  -6.68962 10.8598 -40.6418
LeftForeArm  14.54 -13.3159 -5.84219
LeftHand  -0.0427961 4.44237 2.2743
RightShoulder  -0.69887 -5.51894 27.9942
RightArm  18.2931 -7.11723 45.4779
RightForeArm  -0.0447927 14.7582 6.47686
RightHand  -0.50135 1.66631 -8.41459
LeftUpLeg  -0.706696 27.2092 2.43486
LeftLeg  43.9457 2.06482 2.49628
LeftFoot  6.75722 2.56914 -16.5384
LeftToes  -3.01956e-010 3.07132e-011 1.04116e-011
918
root  14.2727 38.627 12.1217 -2.59314 -5.1062 3.65488
RightUpLeg  -11.2831 -6.91632 5.49548
RightLeg  17.2495 -22.5442 -2.98405
RightFoot  -8.08699 0.357931 -14.4141
RightToes  2.21189e-009 0 -3.6325e-017
Spine  6.08505 -3.58106 7.44715
Spine1  3.80859 -3.19201 2.29911
HEad  -15.9217 -20.164 3.29152
LeftShoulder1  0.353414 2.52599 -30.1656
LeftArm  -3.43776 9.99257 -40.9886
LeftForeArm  17.3284 -13.9799 -6.38354
LeftHand  -0.0239592 4.58294 0.209532
RightShoulder  -0.76093 -5.65392 28.745
RightArm  20.5717 -5.26369 45.8294
RightForeArm  -3.21803 16.8401 6.13316
RightHand  -0.607969 3.54478 -8.13183
LeftUpLeg  -5.55576 22.2871 3.10307
LeftLeg  52.9567 0.118902 0.591775
LeftFoot  13.7636 2.69802 -12.3237
LeftToes  -3.01956e-010 3.07132e-011 1.04116e-011
919
root  14.4588 38.5621 12.7699 -3.31323 -9.8714 3.30011
RightUpLeg  -10.2332 -6.76071 6.09841
RightLeg  18.7155 -18.4278 -2.89396
RightFoot  -9.25649 0.199887 -14.3315
RightToes  2.21189e-009 0 -3.6325e-017
Spine  6.51411 -3.62395 8.24242
Spine1  4.41161 -3.03068 2.52717
HEad  -16.2451 -22.0947 3.90994
LeftShoulder1  0.22908 2.89862 -31.6569
LeftArm  -0.133433 8.88785 -40.5949
LeftForeArm  20.9638 -15.373 -6.36552
LeftHand  -0.0106721 3.66579 -0.717966
RightShoulder  -0.704526 -5.51339 28.3814
RightArm  23.6386 -3.81246 46.8815
RightForeArm  -5.34684 19.5496 5.59086
RightHand  -0.567701 3.15071 -7.93677
LeftUpLeg  -8.83019 18.0317 3.39145
LeftLeg  58.847 -1.79008 -2.62524
LeftFoot  10.4784 2.26135 -12.0241
LeftToes  -3.01956e-010 3.07132e-011 1.04116e-011
920
root  14.5762 38.5641 13.4476 -3.77698 -15.2214 3.46457
RightUpLeg  -9.14452 -6.56624 6.23305
RightLeg  19.4822 -13.6809 -2.32693
RightFoot  -10.2407 0.0713748 -14.4738
RightToes  2.21189e-009 0 -3.6325e-017
Spine  6.16795 -3.43473 9.25958
Spine1  5.03285 -2.34052 0.998333
HEad  -15.2165 -24.5434 4.50011
LeftShoulder1  0.235473 2.86978 -31.0345
LeftArm  1.09141 9.10471 -41.9048
LeftForeArm  22.6309 -16.8387 -5.77848
LeftHand  -0.00981672 3.28213 -0.461238
RightShoulder  -0.785498 -5.72073 28.806
RightArm  27.0232 -2.31826 47.9632
RightForeArm  -6.06522 21.6074 5.32066
RightHand  -0.529969 3.05926 -7.50248
LeftUpLeg  -11.6725 13.65 3.19831
LeftLeg  61.9739 -2.26282 -4.01258
LeftFoot  8.99118 1.85551 -10.641
LeftToes  -3.01956e-010 3.07132e-011 1.04116e-011
921
root  14.5864 38.5962 14.1415 -4.54974 -20.6845 3.55649
RightUpLeg  -7.32195 -5.73553 6.74382
RightLeg  19.5431 -9.4201 -2.32305
RightFoot  -10.8368 -0.00894791 -14.4234
RightToes  2.21189e-009 0 -3.6325e-017
Spine  6.48479 -3.24176 9.54787
Spine1  4.85352 -1.88269 0.543989
HEad  -13.6374 -26.2117 4.40726
LeftShoulder1  0.248699 2.83296 -30.9597
LeftArm  1.70743 9.63904 -42.5589
LeftForeArm  20.3536 -17.6424 -5.50322
LeftHand  -0.011379 3.21294 -0.320372
RightShoulder  -0.793917 -5.75633 28.6211
RightArm  29.4058 -1.58464 49.1191
RightForeArm  -5.45402 23.5938 5.33587
RightHand  -0.622007 4.20751 -7.78673
LeftUpLeg  -13.4128 9.39409 3.59839
LeftLeg  63.0211 -1.91391 -3.48587
LeftFoot  8.26373 1.45013 -8.66877
LeftToes  -3.01956e-010 3.07132e-011 1.04116e-011
